<svg id="Settings_copy" data-name="Settings copy" xmlns="http://www.w3.org/2000/svg" xmlns:xlink="http://www.w3.org/1999/xlink" viewBox="0 0 1028.37 1031.66"><defs><style>.cls-1{stroke:#49c6e3;stroke-miterlimit:10;stroke-width:20px;fill:url(#linear-gradient);filter:url(#filter);}</style><linearGradient id="linear-gradient" x1="280.8" y1="378.13" x2="746.26" y2="646.87" gradientUnits="userSpaceOnUse"><stop offset="0" stop-color="#e8e8e8"/><stop offset="0.49" stop-color="#f1f1f1"/><stop offset="1" stop-color="#fff"/></linearGradient><filter id="filter" x="233.2" y="232.17" width="617.81" height="593.81" filterUnits="userSpaceOnUse"><feOffset dx="42" dy="18" input="SourceAlpha"/><feGaussianBlur stdDeviation="5" result="blur"/><feFlood flood-color="#2e3d49"/><feComposite operator="in" in2="blur"/><feComposite in="SourceGraphic"/></filter></defs><path class="cls-1" d="M772.76,467.57l-85.56-14a14,14,0,0,1-10.68-8.51l-.06-.15A14,14,0,0,1,678,431.35L728.61,361c3.73-5.19,1.15-14.55-6-21.67l-35.91-35.91c-7.12-7.12-16.48-9.7-21.67-6l-70.38,50.63a14,14,0,0,1-13.59,1.52l-.15-.06a14.06,14.06,0,0,1-8.51-10.68l-14-85.56c-1-6.31-9.47-11.1-19.54-11.1H488.14c-10.07,0-18.51,4.79-19.54,11.1l-14,85.56a14,14,0,0,1-8.51,10.68l-.15.06a14,14,0,0,1-13.59-1.52L362,297.42c-5.19-3.73-14.55-1.15-21.67,6L304.42,339.3c-7.12,7.12-9.7,16.48-6,21.67l50.63,70.38a14,14,0,0,1,1.52,13.59l-.06.15a14,14,0,0,1-10.67,8.51l-85.57,14c-6.31,1-11.1,9.47-11.1,19.54v50.78c0,10.07,4.79,18.51,11.1,19.54l85.57,14a14,14,0,0,1,10.67,8.51l.06.15a14,14,0,0,1-1.52,13.59L298.45,664c-3.73,5.19-1.15,14.55,6,21.67l35.91,35.91c7.12,7.12,16.48,9.7,21.67,6L432.38,677A14,14,0,0,1,446,675.43l.15.06a14,14,0,0,1,8.51,10.68l14,85.56c1,6.31,9.47,11.1,19.54,11.1h50.78c10.07,0,18.52-4.79,19.54-11.1l14-85.56a14.06,14.06,0,0,1,8.51-10.68l.15-.06A14,14,0,0,1,594.68,677l70.38,50.63c5.19,3.73,14.55,1.15,21.67-6l35.91-35.91c7.12-7.12,9.7-16.48,6-21.67L678,593.65a14,14,0,0,1-1.52-13.59l.06-.15a14,14,0,0,1,10.68-8.51l85.56-14c6.31-1,11.1-9.47,11.1-19.54V487.11C783.86,477,779.07,468.6,772.76,467.57ZM593.4,512.44a79.87,79.87,0,1,1-79.81-79.81C557,432.66,593.37,469,593.4,512.44Z"/></svg>